<svg width="200.856323" height="31.492432" viewBox="0 0 200.856 31.4924" fill="none" xmlns="http://www.w3.org/2000/svg" xmlns:xlink="http://www.w3.org/1999/xlink">
	<desc>
			Created with Pixso.
	</desc>
	<defs/>
	<path d="M6.07 30.78L6.63 30.78L6.63 30.22L6.63 12.57L10.33 30.29L10.42 30.73L10.88 30.73L13.96 30.73L14.42 30.73L14.51 30.28L18.01 12.65L18.01 30.22L18.01 30.78L18.57 30.78L21.61 30.78L22.17 30.78L22.17 30.22L22.17 1.27L22.17 0.71L21.61 0.71L17.11 0.71L16.65 0.71L16.56 1.16L12.52 21.55L8.32 1.15L8.22 0.71L7.77 0.71L3.27 0.71L2.71 0.71L2.71 1.27L2.71 30.22L2.71 30.78L3.27 30.78L6.07 30.78ZM38.02 30.78L38.48 30.78L38.57 30.32L39.61 24.94L45.99 24.94L47.04 30.32L47.12 30.78L47.59 30.78L50.8 30.78L51.48 30.78L51.35 30.11L45.82 1.16L45.73 0.71L45.27 0.71L40.58 0.71L40.12 0.71L40.03 1.16L34.5 30.11L34.38 30.78L35.05 30.78L38.02 30.78ZM67.12 30.78L67.68 30.78L67.68 30.22L67.68 10.44L74 30.39L74.12 30.78L74.53 30.78L77.88 30.78L78.44 30.78L78.44 30.22L78.44 1.27L78.44 0.71L77.88 0.71L75.02 0.71L74.46 0.71L74.46 1.27L74.46 18.61L68.87 1.1L68.75 0.71L68.34 0.71L64.24 0.71L63.68 0.71L63.68 1.27L63.68 30.22L63.68 30.78L64.24 30.78L67.12 30.78ZM95.36 30.78L95.92 30.78L95.92 30.22L95.92 1.27L95.92 0.71L95.36 0.71L92.13 0.71L91.57 0.71L91.57 1.27L91.57 30.22L91.57 30.78L92.13 30.78L95.36 30.78ZM112.84 30.78L113.4 30.78L113.4 30.22L113.4 18.24L119.48 18.24L120.04 18.24L120.04 17.68L120.04 14.75L120.04 14.19L119.48 14.19L113.4 14.19L113.4 4.78L121.09 4.78L121.65 4.78L121.65 4.22L121.65 1.27L121.65 0.71L121.09 0.71L109.61 0.71L109.05 0.71L109.05 1.27L109.05 30.22L109.05 30.78L109.61 30.78L112.84 30.78ZM138.84 26.14L138.84 26.14C138.37 25.56 138.1 24.67 138.1 23.39L138.1 8.09C138.1 6.83 138.37 5.94 138.84 5.35C139.28 4.79 139.96 4.47 140.97 4.47C142 4.47 142.68 4.79 143.11 5.35C143.57 5.94 143.84 6.83 143.84 8.09L143.84 23.39C143.84 24.72 143.57 25.62 143.11 26.17C142.67 26.71 141.99 27.01 140.97 27.01C139.95 27.01 139.28 26.7 138.84 26.14ZM173.12 30.78L173.68 30.78L173.68 30.22L173.68 27.29L173.68 26.73L173.12 26.73L165.42 26.73L165.42 1.27L165.42 0.71L164.86 0.71L161.63 0.71L161.07 0.71L161.07 1.27L161.07 30.22L161.07 30.78L161.63 30.78L173.12 30.78ZM185.96 30.22L185.96 30.78L186.52 30.78L193.31 30.78C195.6 30.78 197.42 30.12 198.65 28.72L198.65 28.72C199.86 27.34 200.42 25.43 200.42 23.07L200.42 8.48C200.42 6.1 199.86 4.18 198.65 2.79L198.65 2.79C197.42 1.37 195.61 0.71 193.31 0.71L186.52 0.71L185.96 0.71L185.96 1.27L185.96 30.22ZM45.34 21.06L40.23 21.06L42.75 7.87L45.34 21.06ZM133.81 8.27L133.81 23.23C133.81 25.57 134.39 27.49 135.63 28.92C136.89 30.37 138.7 31.06 140.97 31.06C143.27 31.06 145.09 30.37 146.36 28.92C147.6 27.49 148.19 25.57 148.19 23.23L148.19 8.27C148.19 5.91 147.6 3.98 146.36 2.56C145.09 1.11 143.26 0.42 140.97 0.42C138.69 0.42 136.87 1.11 135.62 2.56C134.39 3.98 133.81 5.91 133.81 8.27ZM193.26 26.73L190.31 26.73L190.31 4.78L193.22 4.78C194.27 4.78 194.96 5.08 195.4 5.6C195.86 6.14 196.14 7.02 196.14 8.32L196.14 23.19C196.14 24.49 195.86 25.37 195.41 25.91C194.97 26.43 194.29 26.73 193.26 26.73Z" fill="#000000" fill-opacity="1.000000" fill-rule="nonzero"/>
	<path d="M6.63 30.78L6.63 30.22L6.63 12.57L10.33 30.29L10.42 30.73L10.88 30.73L13.96 30.73L14.42 30.73L14.51 30.28L18.01 12.65L18.01 30.22L18.01 30.78L18.57 30.78L21.61 30.78L22.17 30.78L22.17 30.22L22.17 1.27L22.17 0.71L21.61 0.71L17.11 0.71L16.65 0.71L16.56 1.16L12.52 21.55L8.32 1.15L8.22 0.71L7.77 0.71L3.27 0.71L2.71 0.71L2.71 1.27L2.71 30.22L2.71 30.78L3.27 30.78L6.07 30.78L6.63 30.78ZM38.48 30.78L38.57 30.32L39.61 24.94L45.99 24.94L47.04 30.32L47.12 30.78L47.59 30.78L50.8 30.78L51.48 30.78L51.35 30.11L45.82 1.16L45.73 0.71L45.27 0.71L40.58 0.71L40.12 0.71L40.03 1.16L34.5 30.11L34.38 30.78L35.05 30.78L38.02 30.78L38.48 30.78ZM67.68 30.78L67.68 30.22L67.68 10.44L74 30.39L74.12 30.78L74.53 30.78L77.88 30.78L78.44 30.78L78.44 30.22L78.44 1.27L78.44 0.71L77.88 0.71L75.02 0.71L74.46 0.71L74.46 1.27L74.46 18.61L68.87 1.1L68.75 0.71L68.34 0.71L64.24 0.71L63.68 0.71L63.68 1.27L63.68 30.22L63.68 30.78L64.24 30.78L67.12 30.78L67.68 30.78ZM95.92 30.78L95.92 30.22L95.92 1.27L95.92 0.71L95.36 0.71L92.13 0.71L91.57 0.71L91.57 1.27L91.57 30.22L91.57 30.78L92.13 30.78L95.36 30.78L95.92 30.78ZM113.4 30.78L113.4 30.22L113.4 18.24L119.48 18.24L120.04 18.24L120.04 17.68L120.04 14.75L120.04 14.19L119.48 14.19L113.4 14.19L113.4 4.78L121.09 4.78L121.65 4.78L121.65 4.22L121.65 1.27L121.65 0.71L121.09 0.71L109.61 0.71L109.05 0.71L109.05 1.27L109.05 30.22L109.05 30.78L109.61 30.78L112.84 30.78L113.4 30.78ZM138.84 26.14C138.37 25.56 138.1 24.67 138.1 23.39L138.1 8.09C138.1 6.83 138.37 5.94 138.84 5.35C139.28 4.79 139.96 4.47 140.97 4.47C142 4.47 142.68 4.79 143.11 5.35C143.57 5.94 143.84 6.83 143.84 8.09L143.84 23.39C143.84 24.72 143.57 25.62 143.11 26.17C142.67 26.71 141.99 27.01 140.97 27.01C139.95 27.01 139.28 26.7 138.84 26.14L138.84 26.14ZM173.68 30.78L173.68 30.22L173.68 27.29L173.68 26.73L173.12 26.73L165.42 26.73L165.42 1.27L165.42 0.71L164.86 0.71L161.63 0.71L161.07 0.71L161.07 1.27L161.07 30.22L161.07 30.78L161.63 30.78L173.12 30.78L173.68 30.78ZM185.96 30.78L186.52 30.78L193.31 30.78C195.6 30.78 197.42 30.12 198.65 28.72L198.65 28.72C199.86 27.34 200.42 25.43 200.42 23.07L200.42 8.48C200.42 6.1 199.86 4.18 198.65 2.79L198.65 2.79C197.42 1.37 195.61 0.71 193.31 0.71L186.52 0.71L185.96 0.71L185.96 1.27L185.96 30.22L185.96 30.78ZM40.23 21.06L42.75 7.87L45.34 21.06L40.23 21.06ZM133.81 23.23C133.81 25.57 134.39 27.49 135.63 28.92C136.89 30.37 138.7 31.06 140.97 31.06C143.27 31.06 145.09 30.37 146.36 28.92C147.6 27.49 148.19 25.57 148.19 23.23L148.19 8.27C148.19 5.91 147.6 3.98 146.36 2.56C145.09 1.11 143.26 0.42 140.97 0.42C138.69 0.42 136.87 1.11 135.62 2.56C134.39 3.98 133.81 5.91 133.81 8.27L133.81 23.23ZM190.31 26.73L190.31 4.78L193.22 4.78C194.27 4.78 194.96 5.08 195.4 5.6C195.86 6.14 196.14 7.02 196.14 8.32L196.14 23.19C196.14 24.49 195.86 25.37 195.41 25.91C194.97 26.43 194.29 26.73 193.26 26.73L190.31 26.73Z" stroke="#000000" stroke-opacity="1.000000" stroke-width="0.856229"/>
	<path d="M3.79 30.78L4.35 30.78L4.35 30.22L4.35 12.57L8.04 30.29L8.14 30.73L8.59 30.73L11.68 30.73L12.14 30.73L12.23 30.28L15.73 12.65L15.73 30.22L15.73 30.78L16.29 30.78L19.33 30.78L19.89 30.78L19.89 30.22L19.89 1.27L19.89 0.71L19.33 0.71L14.83 0.71L14.37 0.71L14.28 1.16L10.24 21.55L6.03 1.15L5.94 0.71L5.48 0.71L0.98 0.71L0.42 0.71L0.42 1.27L0.42 30.22L0.42 30.78L0.98 30.78L3.79 30.78ZM35.74 30.78L36.2 30.78L36.29 30.32L37.33 24.94L43.71 24.94L44.75 30.32L44.84 30.78L45.3 30.78L48.52 30.78L49.19 30.78L49.07 30.11L43.54 1.16L43.45 0.71L42.99 0.71L38.3 0.71L37.84 0.71L37.75 1.16L32.22 30.11L32.09 30.78L32.77 30.78L35.74 30.78ZM64.84 30.78L65.4 30.78L65.4 30.22L65.4 10.44L71.72 30.39L71.84 30.78L72.25 30.78L75.6 30.78L76.16 30.78L76.16 30.22L76.16 1.27L76.16 0.71L75.6 0.71L72.74 0.71L72.18 0.71L72.18 1.27L72.18 18.61L66.59 1.1L66.46 0.71L66.05 0.71L61.96 0.71L61.4 0.71L61.4 1.27L61.4 30.22L61.4 30.78L61.96 30.78L64.84 30.78ZM93.08 30.78L93.64 30.78L93.64 30.22L93.64 1.27L93.64 0.71L93.08 0.71L89.85 0.71L89.29 0.71L89.29 1.27L89.29 30.22L89.29 30.78L89.85 30.78L93.08 30.78ZM110.55 30.78L111.11 30.78L111.11 30.22L111.11 18.24L117.19 18.24L117.75 18.24L117.75 17.68L117.75 14.75L117.75 14.19L117.19 14.19L111.11 14.19L111.11 4.78L118.81 4.78L119.37 4.78L119.37 4.22L119.37 1.27L119.37 0.71L118.81 0.71L107.32 0.71L106.76 0.71L106.76 1.27L106.76 30.22L106.76 30.78L107.32 30.78L110.55 30.78ZM136.56 26.14L136.55 26.14C136.09 25.56 135.82 24.67 135.82 23.39L135.82 8.09C135.82 6.83 136.09 5.94 136.56 5.35C137 4.79 137.67 4.47 138.69 4.47C139.72 4.47 140.4 4.79 140.83 5.35C141.29 5.94 141.56 6.83 141.56 8.09L141.56 23.39C141.56 24.72 141.28 25.62 140.83 26.17C140.39 26.71 139.71 27.01 138.69 27.01C137.67 27.01 137 26.7 136.56 26.14ZM170.84 30.78L171.4 30.78L171.4 30.22L171.4 27.29L171.4 26.73L170.84 26.73L163.14 26.73L163.14 1.27L163.14 0.71L162.58 0.71L159.35 0.71L158.79 0.71L158.79 1.27L158.79 30.22L158.79 30.78L159.35 30.78L170.84 30.78ZM183.68 30.22L183.68 30.78L184.24 30.78L191.02 30.78C193.32 30.78 195.14 30.12 196.37 28.72L196.37 28.72C197.58 27.34 198.14 25.43 198.14 23.07L198.14 8.48C198.14 6.1 197.58 4.18 196.37 2.79L196.37 2.79C195.14 1.37 193.32 0.71 191.02 0.71L184.24 0.71L183.68 0.71L183.68 1.27L183.68 30.22ZM43.05 21.06L37.95 21.06L40.47 7.87L43.05 21.06ZM131.53 8.27L131.53 23.23C131.53 25.57 132.11 27.49 133.35 28.92C134.6 30.37 136.41 31.06 138.69 31.06C140.98 31.06 142.81 30.37 144.07 28.92C145.32 27.49 145.91 25.57 145.91 23.23L145.91 8.27C145.91 5.91 145.32 3.98 144.07 2.56C142.81 1.11 140.98 0.42 138.69 0.42C136.4 0.42 134.59 1.11 133.34 2.56C132.11 3.98 131.53 5.91 131.53 8.27ZM190.98 26.73L188.03 26.73L188.03 4.78L190.94 4.78C191.98 4.78 192.67 5.08 193.12 5.6C193.58 6.14 193.85 7.02 193.85 8.32L193.85 23.19C193.85 24.49 193.58 25.37 193.13 25.91C192.69 26.43 192.01 26.73 190.98 26.73Z" fill="#FFFFFF" fill-opacity="1.000000" fill-rule="nonzero"/>
	<path d="M4.35 30.78L4.35 30.22L4.35 12.57L8.04 30.29L8.14 30.73L8.59 30.73L11.68 30.73L12.14 30.73L12.23 30.28L15.73 12.65L15.73 30.22L15.73 30.78L16.29 30.78L19.33 30.78L19.89 30.78L19.89 30.22L19.89 1.27L19.89 0.71L19.33 0.71L14.83 0.71L14.37 0.71L14.28 1.16L10.24 21.55L6.03 1.15L5.94 0.71L5.48 0.71L0.98 0.71L0.42 0.71L0.42 1.27L0.42 30.22L0.42 30.78L0.98 30.78L3.79 30.78L4.35 30.78ZM36.2 30.78L36.29 30.32L37.33 24.94L43.71 24.94L44.75 30.32L44.84 30.78L45.3 30.78L48.52 30.78L49.19 30.78L49.07 30.11L43.54 1.16L43.45 0.71L42.99 0.71L38.3 0.71L37.84 0.71L37.75 1.16L32.22 30.11L32.09 30.78L32.77 30.78L35.74 30.78L36.2 30.78ZM65.4 30.78L65.4 30.22L65.4 10.44L71.72 30.39L71.84 30.78L72.25 30.78L75.6 30.78L76.16 30.78L76.16 30.22L76.16 1.27L76.16 0.71L75.6 0.71L72.74 0.71L72.18 0.71L72.18 1.27L72.18 18.61L66.59 1.1L66.46 0.71L66.05 0.71L61.96 0.71L61.4 0.71L61.4 1.27L61.4 30.22L61.4 30.78L61.96 30.78L64.84 30.78L65.4 30.78ZM93.64 30.78L93.64 30.22L93.64 1.27L93.64 0.71L93.08 0.71L89.85 0.71L89.29 0.71L89.29 1.27L89.29 30.22L89.29 30.78L89.85 30.78L93.08 30.78L93.64 30.78ZM111.11 30.78L111.11 30.22L111.11 18.24L117.19 18.24L117.75 18.24L117.75 17.68L117.75 14.75L117.75 14.19L117.19 14.19L111.11 14.19L111.11 4.78L118.81 4.78L119.37 4.78L119.37 4.22L119.37 1.27L119.37 0.71L118.81 0.71L107.32 0.71L106.76 0.71L106.76 1.27L106.76 30.22L106.76 30.78L107.32 30.78L110.55 30.78L111.11 30.78ZM136.55 26.14C136.09 25.56 135.82 24.67 135.82 23.39L135.82 8.09C135.82 6.83 136.09 5.94 136.56 5.35C137 4.79 137.67 4.47 138.69 4.47C139.72 4.47 140.4 4.79 140.83 5.35C141.29 5.94 141.56 6.83 141.56 8.09L141.56 23.39C141.56 24.72 141.28 25.62 140.83 26.17C140.39 26.71 139.71 27.01 138.69 27.01C137.67 27.01 137 26.7 136.56 26.14L136.55 26.14ZM171.4 30.78L171.4 30.22L171.4 27.29L171.4 26.73L170.84 26.73L163.14 26.73L163.14 1.27L163.14 0.71L162.58 0.71L159.35 0.71L158.79 0.71L158.79 1.27L158.79 30.22L158.79 30.78L159.35 30.78L170.84 30.78L171.4 30.78ZM183.68 30.78L184.24 30.78L191.02 30.78C193.32 30.78 195.14 30.12 196.37 28.72L196.37 28.72C197.58 27.34 198.14 25.43 198.14 23.07L198.14 8.48C198.14 6.1 197.58 4.18 196.37 2.79L196.37 2.79C195.14 1.37 193.32 0.71 191.02 0.71L184.24 0.71L183.68 0.71L183.68 1.27L183.68 30.22L183.68 30.78ZM37.95 21.06L40.47 7.87L43.05 21.06L37.95 21.06ZM131.53 23.23C131.53 25.57 132.11 27.49 133.35 28.92C134.6 30.37 136.41 31.06 138.69 31.06C140.98 31.06 142.81 30.37 144.07 28.92C145.32 27.49 145.91 25.57 145.91 23.23L145.91 8.27C145.91 5.91 145.32 3.98 144.07 2.56C142.81 1.11 140.98 0.42 138.69 0.42C136.4 0.42 134.59 1.11 133.34 2.56C132.11 3.98 131.53 5.91 131.53 8.27L131.53 23.23ZM188.03 26.73L188.03 4.78L190.94 4.78C191.98 4.78 192.67 5.08 193.12 5.6C193.58 6.14 193.85 7.02 193.85 8.32L193.85 23.19C193.85 24.49 193.58 25.37 193.13 25.91C192.69 26.43 192.01 26.73 190.98 26.73L188.03 26.73Z" stroke="#000000" stroke-opacity="1.000000" stroke-width="0.856229"/>
	<path d="M4.35 30.78L3.79 30.78L0.98 30.78L0.42 30.78L0.42 30.22L0.42 1.27L0.42 0.71L0.98 0.71L5.48 0.71L5.94 0.71L6.03 1.15L10.24 21.55L14.28 1.16L14.37 0.71L14.83 0.71L19.33 0.71L19.89 0.71L19.89 1.27L19.89 30.22L19.89 30.78L19.33 30.78L16.29 30.78L15.73 30.78L15.73 30.22L15.73 12.65L12.23 30.28L12.14 30.74L11.68 30.74L8.59 30.74L8.14 30.74L8.04 30.29L4.35 12.57L4.35 30.22L4.35 30.78Z" fill="#FFFFFF" fill-opacity="1.000000" fill-rule="nonzero"/>
	<path d="M4.35 30.78L4.35 30.22L4.35 12.57L8.04 30.29L8.14 30.74L8.59 30.74L11.68 30.74L12.14 30.74L12.23 30.28L15.73 12.65L15.73 30.22L15.73 30.78L16.29 30.78L19.33 30.78L19.89 30.78L19.89 30.22L19.89 1.27L19.89 0.71L19.33 0.71L14.83 0.71L14.37 0.71L14.28 1.16L10.24 21.55L6.03 1.15L5.94 0.71L5.48 0.71L0.98 0.71L0.42 0.71L0.42 1.27L0.42 30.22L0.42 30.78L0.98 30.78L3.79 30.78L4.35 30.78Z" stroke="#000000" stroke-opacity="1.000000" stroke-width="0.856229"/>
</svg>
